PathFileType	4	(X/Y/Z)	RBDS018\RBDS018runT25.trc
DataRate	CameraRate	NumFrames	NumMarkers	Units	OrigDataRate	OrigDataStartFrame	OrigNumFrames
150.000000	150.000000	5	33	mm	150.000000	2812	4500
Frame#	Time	L.ASIS			L.Heel.Bottom			L.Heel.Lateral			L.Heel.Top			L.Iliac.Crest			L.MT1			L.MT5			L.PSIS			L.Shank.Bottom.Lateral			L.Shank.Bottom.Medial			L.Shank.Top.Lateral			L.Shank.Top.Medial			L.Thigh.Bottom.Lateral			L.Thigh.Bottom.Medial			L.Thigh.Top.Lateral			L.Thigh.Top.Medial			R.ASIS			R.ASY			R.Heel.Bottom			R.Heel.Lateral			R.Heel.Top			R.Iliac.Crest			R.MT1			R.MT5			R.PSIS			R.Shank.Bottom.Lateral			R.Shank.Bottom.Medial			R.Shank.Top.Lateral			R.Shank.Top.Medial			R.Thigh.Bottom.Lateral			R.Thigh.Bottom.Medial			R.Thigh.Top.Lateral			R.Thigh.Top.Medial			
		X1	Y1	Z1	X2	Y2	Z2	X3	Y3	Z3	X4	Y4	Z4	X5	Y5	Z5	X6	Y6	Z6	X7	Y7	Z7	X8	Y8	Z8	X9	Y9	Z9	X10	Y10	Z10	X11	Y11	Z11	X12	Y12	Z12	X13	Y13	Z13	X14	Y14	Z14	X15	Y15	Z15	X16	Y16	Z16	X17	Y17	Z17	X18	Y18	Z18	X19	Y19	Z19	X20	Y20	Z20	X21	Y21	Z21	X22	Y22	Z22	X23	Y23	Z23	X24	Y24	Z24	X25	Y25	Z25	X26	Y26	Z26	X27	Y27	Z27	X28	Y28	Z28	X29	Y29	Z29	X30	Y30	Z30	X31	Y31	Z31	X32	Y32	Z32	X33	Y33	Z33	

2813	18.74666666666667	2216.188306298569	1036.37900292647	965.0104075279646	1572.212086430771	377.1987438116251	1038.880529235014	1586.229915770505	344.6211808152863	994.8511476322516	1622.613278269768	376.3860055917494	1034.636988519768	2160.990467686726	1126.090464144773	920.5018382222836	1630.77920936763	168.716447380316	1102.129022122748	1618.332165799672	180.6264775704516	989.0192015544807	2042.517265616567	1074.858665594577	1012.371988771938	1719.077682235801	374.8753134253409	972.6130125035394	1706.282145416048	405.3381416849518	1011.726695909359	1782.228459754949	422.0927964815256	952.6214225423138	1773.253924745944	454.5951687791816	993.8916167594264	2072.356505481564	625.6148395224393	914.8727415661316	2013.791987756498	643.0887992729059	955.189237758717	2090.605382182767	731.925981285612	896.2120259285093	2032.862161704038	748.2429605748038	932.4356275668712	2208.091750936336	1044.070903470694	1186.468080366501	2431.031247628304	97.06769778502012	1124.111457064658	2240.153193772479	38.63246540073109	1098.621364725929	2260.507207296526	45.26350582931138	1139.124632741431	2250.22904324462	86.69381941041969	1110.79141514079	2142.431730637463	1117.058119875592	1219.454443185149	2461.618862865714	68.72797641583904	1066.572907151686	2433.698296262804	41.85434333417674	1172.445796239251	2035.66270816612	1069.318906536022	1123.998257708349	2295.7880916168	202.1409335819356	1192.778548936675	2254.466167575881	205.8304320634285	1155.939387418624	2283.4274681507	279.8915944710557	1212.3796813965	2243.117407819467	282.8107078902205	1176.061444660633	2260.519816997622	636.5901778240683	1242.897347968475	2202.01601613265	617.358239446518	1204.616845297202	2213.6416838469	735.6624420851339	1261.98456947589	2159.196735850278	716.4022993998395	1226.561271961139	
2814	18.75333333333333	2216.137600875647	1031.214107331879	964.9527225563018	1578.398225066813	385.0840587113814	1037.08056482956	1591.694700421167	352.1836973642405	993.0887997463523	1628.822213856307	383.2551324771737	1032.811187730767	2159.732800770716	1120.132955724888	919.8751674373169	1632.460477498754	175.5230099130641	1100.390632898645	1620.267724949297	187.6713963528007	987.2100886590039	2042.017738890793	1067.00278595569	1012.103218362607	1726.239296009221	378.445164802301	970.8800686274179	1714.324658377063	409.4517850120188	1009.847954388368	1790.99460790295	423.4350210449091	951.0950510830211	1782.93998767218	456.3507873302822	992.0954610132618	2080.811479462767	617.3150667351647	914.5544934556126	2022.106817172926	633.3181938619068	955.3700908899178	2096.385551282009	724.1054782636853	896.0595564206848	2038.477563271401	738.9580597702098	932.5936561488403	2207.560722155895	1039.521180027402	1186.745450253712	2418.53976562041	93.23973597562309	1120.676261229847	2226.59308914055	36.54561559989034	1097.472891112766	2247.157109573578	44.15283265939533	1137.638718669925	2237.495914755893	84.78966779432257	1108.134723433239	2141.301695771333	1111.409980946743	1219.705344846483	2448.807103786699	62.99201422672778	1063.779820153645	2420.392150213045	40.3862455692101	1170.996409848287	2034.616641106402	1062.042679017115	1123.574434647629	2287.7124724992	197.8205347880419	1190.772715658489	2245.902885027749	202.796077450798	1154.692212228161	2277.624380410673	275.7129004437469	1210.949077467541	2236.901007547483	279.849122168851	1175.275772431997	2259.52649903008	632.2069446049923	1242.880808795997	2201.176662408989	612.8080650564136	1204.499725245145	2212.427920710486	731.216232261841	1261.713906482805	2158.013056518197	711.7738167628069	1226.343393557447	
2815	18.76	2216.030725779445	1025.440648549733	965.0599748857262	1585.937200651889	392.599090314608	1035.599095863418	1598.412985487812	359.5143749394036	991.5100181412033	1636.352409497332	389.7718914517649	1031.185465881263	2158.538219716444	1113.298095765912	919.1866997951024	1635.332252899927	181.8258630544755	1098.167879131122	1623.268143127293	194.5718843001087	985.0546484144058	2041.380181408101	1058.584472401302	1011.746745205049	1734.390072714547	381.7026136032582	969.155243461794	1723.398078205306	413.1643443849306	1008.024075186662	1800.601026030088	424.4906066626143	949.5737007711999	1793.508424009356	457.7209210441968	990.3590821816214	2089.170116928987	609.1392372241495	914.1949205121928	2030.436758420913	623.6287558491973	955.6248256541654	2102.0203859348	716.3488037110992	895.8866198418359	2044.056985577048	729.7011575756269	932.8578051596454	2206.815553498724	1034.71448893244	1187.141224762691	2404.651485153393	89.97560033431553	1117.057938330109	2211.767070171757	34.7492327056016	1096.105925054734	2232.499340078618	43.50461795141058	1135.910825794631	2223.400510921786	83.21521091169259	1105.100199769025	2140.043092004993	1105.402294921254	1220.053898793188	2434.777908975197	57.8623838751735	1061.019680549865	2405.76308462888	39.51670427340658	1169.500544405009	2033.358539434597	1054.588049120192	1123.049252722584	2278.859749774853	193.8424568683856	1188.420893316118	2236.484392245407	200.2716460805968	1153.250896234727	2271.326852026831	271.8437960614974	1209.262911978552	2230.11904698745	277.3523087920571	1174.362932068899	2258.283158464808	627.7027141197789	1242.850442069741	2200.193895993609	608.17150966362	1204.192523177592	2210.902530968646	726.6062712570842	1261.458182518565	2156.579107482425	707.0136042605403	1226.008208829253	
2816	18.76666666666667	2215.848858669664	1019.114005667932	965.3668897398034	1594.750652962485	399.6629643560319	1034.374704196454	1606.359079352169	366.5266950980963	990.0682814584663	1645.129390017516	395.8652078055856	1029.743141948649	2157.425914271545	1105.640224334219	918.4587223480189	1639.365891477165	187.5687955984582	1095.497618708279	1627.388270588776	201.2451355811718	982.5701287205859	2040.580068823911	1049.804707560094	1011.294131839242	1743.495298231965	384.6279710190421	967.4470533148573	1733.445113679373	416.4628572771137	1006.257729295655	1811.026416383985	425.2544988824861	948.0658895751299	1804.915590789865	458.7101480560239	988.695023226406	2097.440776194615	601.2127530277413	913.8014683669279	2038.757246828289	614.1412180209479	955.9007560051857	2107.526985884131	708.7758403108303	895.7134827819782	2049.588771803529	720.5910441570458	933.1997272632996	2205.80157238972	1029.731104734598	1187.715124132852	2389.655108082783	87.35838554639798	1113.42793218093	2196.002888101968	33.27835633354685	1094.602679340554	2216.869138653109	43.27484217223282	1134.039536171945	2208.239943256698	81.98372494103613	1101.874133533337	2138.596354858245	1099.102318382836	1220.504154376234	2419.814671138968	53.55761064799717	1058.413266129681	2390.148128715977	39.18448534782056	1167.999867244843	2031.872477448976	1047.14203743031	1122.401539538594	2269.338680318966	190.3491885425567	1185.844863775522	2226.372739807325	198.3460280690376	1151.670653794081	2264.558304023063	268.4154671220638	1207.385402672737	2222.84503045187	275.401091094758	1173.331061021685	2256.750000559693	623.1764205851368	1242.782425356567	2199.014236815638	603.572380678484	1203.67342690244	2209.040526915578	721.9334936417065	1261.226325866978	2154.875614696973	702.2447886264921	1225.550326628231	
2817	18.77333333333333	2215.566501276598	1012.328311945009	965.890703383371	1604.719534880158	406.1896006718318	1033.322887930806	1615.476390191944	373.12285521478	988.7028339919582	1655.039460506681	401.4651639071414	1028.452396587307	2156.392157898532	1097.280322279752	917.7168399151848	1644.535110095052	192.707122295475	1092.437738498716	1632.689970960025	207.5934996110615	979.7864144283012	2039.595694442736	1040.905806359499	1010.744647481772	1753.507512722278	387.209173204194	965.7608563516659	1744.390800797113	419.3446564448067	1004.546124537459	1822.236323515863	425.7333779841002	946.5795874253474	1817.098387654937	459.3394767640931	987.1103497371485	2105.65645103563	593.6553210135613	913.3827748974901	2047.064879659241	604.9675638891895	956.1414529281166	2112.940964849112	701.5021189141179	895.5611068096916	2055.077454725989	711.7388380387868	933.5886385633396	2204.472918596556	1024.67391740575	1188.522224461687	2373.843030973489	85.40195976606684	1109.974911556138	2179.606690583446	32.15398228722175	1093.066938289477	2200.581153986494	43.3950816351942	1132.146541947653	2192.30974640107	81.09348123933623	1098.667976839612	2136.890000953917	1092.60884553943	1221.046404129637	2404.185816680312	50.19694986716947	1056.079903118095	2373.862077993271	39.28070276537144	1166.559164754021	2030.155646680185	1039.896630966453	1121.61427201575	2259.236991145837	187.4368178123624	1183.204117864791	2215.716733807266	197.0598844317936	1150.03415199698	2257.315924788661	265.5162615225721	1205.414102422788	2215.134610315725	274.031978290448	1172.211581731111	2254.897987722955	618.7296363511381	1242.654472243205	2197.585068153197	599.129901129975	1202.942574281425	2206.836181365616	717.3088076041438	1261.019415626885	2152.893799298643	697.5935427460926	1224.975934814668	
